<?xml version="1.0" encoding="UTF-8" standalone="no"?>
<svg width="17px" height="17px" viewBox="0 0 17 17" version="1.1" xmlns="http://www.w3.org/2000/svg" xmlns:xlink="http://www.w3.org/1999/xlink">
    <!-- Generator: Sketch 3.8.3 (29802) - http://www.bohemiancoding.com/sketch -->
    <title>Shape</title>
    <desc>Created with Sketch.</desc>
    <defs></defs>
    <g id="Page-1" stroke="none" stroke-width="1" fill="none" fill-rule="evenodd">
        <g id="О-компании-(одностраничный-режим)-Copy" transform="translate(-1327.000000, -17.000000)" stroke="#FFFFFF" stroke-width="0.4" fill="#FFFFFF">
            <g id="Group" transform="translate(1310.000000, 0.000000)">
                <path d="M18.1645923,18.44558 L25.2307319,25.5106499 L18.1645923,32.5607446 C18.0667189,32.6358879 18.0592313,32.7936619 18.1421296,32.8762928 C18.2250278,32.9589236 18.3828019,32.9511686 18.4582126,32.85383 L25.5318397,25.7959803 L32.6054668,32.85383 C32.6808774,32.9511686 32.8314314,32.9589236 32.9218172,32.8762928 C33.0047154,32.7936619 32.9969604,32.6361553 32.899087,32.5607446 L25.8254599,25.5106499 L32.899087,18.44558 C33.0271782,18.3177563 32.8841119,18.055156 32.7110952,18.092594 C32.6659023,18.1000815 32.6281969,18.1225443 32.6054668,18.152762 L25.5318397,25.2028567 L18.4582126,18.152762 C18.4205072,18.1075691 18.3603392,18.0851064 18.3076587,18.0851064 C18.1193994,18.1225443 18.0517438,18.3404865 18.1645923,18.44558 Z" id="Shape"></path>
            </g>
        </g>
    </g>
</svg>