<?xml version="1.0" encoding="UTF-8" standalone="no"?>
<svg width="25px" height="35px" viewBox="0 0 25 35" version="1.1" xmlns="http://www.w3.org/2000/svg" xmlns:xlink="http://www.w3.org/1999/xlink">
    <!-- Generator: Sketch 3.8.3 (29802) - http://www.bohemiancoding.com/sketch -->
    <title>Shape</title>
    <desc>Created with Sketch.</desc>
    <defs></defs>
    <g id="Page-1" stroke="none" stroke-width="1" fill="none" fill-rule="evenodd">
        <g id="Контакты" transform="translate(-1035.000000, -420.000000)" fill="#000000">
            <path d="M1047.39378,420 C1040.5489,420 1035,425.548901 1035,432.393777 C1035,439.238654 1040.5489,444.787554 1047.39378,444.787554 C1047.83794,444.787554 1048.27641,444.762905 1048.70824,444.717399 C1047.31414,449.670454 1044.90279,454.263253 1044.90279,454.263253 C1053.98458,448.146948 1057.52505,441.352791 1058.9054,436.985153 C1059.45906,435.598639 1059.77002,434.090302 1059.78471,432.509913 C1059.78755,432.434543 1059.78755,432.393777 1059.78755,432.393777 C1059.78755,425.548901 1054.23865,420 1047.39378,420 L1047.39378,420 Z M1047.39378,441.324824 C1042.46158,441.324824 1038.46273,437.326449 1038.46273,432.393777 C1038.46273,427.461579 1042.46111,423.46273 1047.39378,423.46273 C1052.32645,423.46273 1056.32482,427.461105 1056.32482,432.393777 C1056.32482,437.325975 1052.32598,441.324824 1047.39378,441.324824 L1047.39378,441.324824 Z" id="Shape"></path>
        </g>
    </g>
</svg>