<?xml version="1.0" encoding="UTF-8" standalone="no"?>
<svg width="90px" height="13px" viewBox="0 0 90 13" version="1.1" xmlns="http://www.w3.org/2000/svg" xmlns:xlink="http://www.w3.org/1999/xlink">
    <!-- Generator: Sketch 3.8.3 (29802) - http://www.bohemiancoding.com/sketch -->
    <title>POKROV</title>
    <desc>Created with Sketch.</desc>
    <defs></defs>
    <g id="Page-1" stroke="none" stroke-width="1" fill="none" fill-rule="evenodd">
        <g id="Главная-страница" transform="translate(-50.000000, -18.000000)" fill="#C3B091">
            <path d="M56.4109589,26.3164384 L52.2082192,26.3164384 L52.2082192,30.7328767 L50,30.7328767 L50,18.2671233 L56.4109589,18.2671233 C57.8000069,18.2671233 58.8803614,18.4986278 59.6520548,18.9616438 C60.2219207,19.3059378 60.6552497,19.7748829 60.9520548,20.3684932 C61.2488599,20.9621034 61.3972603,21.6031929 61.3972603,22.2917808 C61.3972603,22.9803687 61.2488599,23.6214582 60.9520548,24.2150685 C60.6552497,24.8086788 60.2219207,25.2776238 59.6520548,25.6219178 C58.8803614,26.0849338 57.8000069,26.3164384 56.4109589,26.3164384 L56.4109589,26.3164384 Z M52.2082192,20.439726 L52.2082192,24.1438356 L56.4109589,24.1438356 C57.3251187,24.1438356 57.9721442,24.0310514 58.3520548,23.8054795 C58.886304,23.4849299 59.1534247,22.9803687 59.1534247,22.2917808 C59.1534247,21.6031929 58.886304,21.0986317 58.3520548,20.7780822 C57.9721442,20.5525103 57.3251187,20.439726 56.4109589,20.439726 L52.2082192,20.439726 Z M67.5945205,27.5273973 C68.4374471,28.322835 69.5178016,28.7205479 70.8356164,28.7205479 C72.1534312,28.7205479 73.2308177,28.319867 74.0678082,27.5184932 C74.9047987,26.7171193 75.3232877,25.710965 75.3232877,24.5 C75.3232877,23.289035 74.9047987,22.2828807 74.0678082,21.4815068 C73.2308177,20.680133 72.1534312,20.2794521 70.8356164,20.2794521 C69.5178016,20.2794521 68.4404151,20.680133 67.6034247,21.4815068 C66.7664342,22.2828807 66.3479452,23.289035 66.3479452,24.5 C66.3479452,25.710965 66.7634662,26.7200873 67.5945205,27.5273973 L67.5945205,27.5273973 Z M75.6616438,29.1123288 C74.3794456,30.3707825 72.7707859,31 70.8356164,31 C68.9004469,31 67.2888192,30.3678145 66.0006849,29.1034247 C64.7125506,27.8390348 64.0684932,26.3045752 64.0684932,24.5 C64.0684932,22.6954248 64.7125506,21.1609652 66.0006849,19.8965753 C67.2888192,18.6321855 68.9004469,18 70.8356164,18 C72.7707859,18 74.3824137,18.6321855 75.6705479,19.8965753 C76.9586822,21.1609652 77.6027397,22.6954248 77.6027397,24.5 C77.6027397,26.3045752 76.9557142,27.8420028 75.6616438,29.1123288 L75.6616438,29.1123288 Z M81.5205479,18.2671233 L83.7287671,18.2671233 L83.7287671,23.6808219 L89.5876712,18.2671233 L92.739726,18.2671233 L86.7917808,23.6452055 L92.9178082,30.7328767 L89.9082192,30.7328767 L85.0465753,24.9986301 L83.7287671,26.1561644 L83.7287671,30.7328767 L81.5205479,30.7328767 L81.5205479,18.2671233 Z M104.689041,30.7328767 L101.216438,26.3164384 L98.1534247,26.3164384 L98.1534247,30.7328767 L95.9452055,30.7328767 L95.9452055,18.2671233 L102.178082,18.2671233 C103.56713,18.2671233 104.647485,18.4986278 105.419178,18.9616438 C105.989044,19.3059378 106.422373,19.7748829 106.719178,20.3684932 C107.015983,20.9621034 107.164384,21.6031929 107.164384,22.2917808 C107.164384,23.2771739 106.855711,24.1052478 106.238356,24.7760274 C105.621001,25.446807 104.772152,25.871232 103.691781,26.0493151 L107.431507,30.7328767 L104.689041,30.7328767 Z M98.1534247,20.439726 L98.1534247,24.1438356 L102.178082,24.1438356 C103.092242,24.1438356 103.739268,24.0310514 104.119178,23.8054795 C104.653427,23.4849299 104.920548,22.9803687 104.920548,22.2917808 C104.920548,21.6031929 104.653427,21.0986317 104.119178,20.7780822 C103.739268,20.5525103 103.092242,20.439726 102.178082,20.439726 L98.1534247,20.439726 Z M113.984932,27.5273973 C114.827858,28.322835 115.908213,28.7205479 117.226027,28.7205479 C118.543842,28.7205479 119.621229,28.319867 120.458219,27.5184932 C121.29521,26.7171193 121.713699,25.710965 121.713699,24.5 C121.713699,23.289035 121.29521,22.2828807 120.458219,21.4815068 C119.621229,20.680133 118.543842,20.2794521 117.226027,20.2794521 C115.908213,20.2794521 114.830826,20.680133 113.993836,21.4815068 C113.156845,22.2828807 112.738356,23.289035 112.738356,24.5 C112.738356,25.710965 113.153877,26.7200873 113.984932,27.5273973 L113.984932,27.5273973 Z M122.052055,29.1123288 C120.769857,30.3707825 119.161197,31 117.226027,31 C115.290858,31 113.67923,30.3678145 112.391096,29.1034247 C111.102962,27.8390348 110.458904,26.3045752 110.458904,24.5 C110.458904,22.6954248 111.102962,21.1609652 112.391096,19.8965753 C113.67923,18.6321855 115.290858,18 117.226027,18 C119.161197,18 120.772825,18.6321855 122.060959,19.8965753 C123.349093,21.1609652 123.993151,22.6954248 123.993151,24.5 C123.993151,26.3045752 123.346125,27.8420028 122.052055,29.1123288 L122.052055,29.1123288 Z M139.343836,18.2671233 L134.161644,30.7328767 L130.956164,30.7328767 L125.773973,18.2671233 L128.284932,18.2671233 L132.558904,28.9520548 L136.832877,18.2671233 L139.343836,18.2671233 Z" id="POKROV"></path>
        </g>
    </g>
</svg>